<svg xmlns="http://www.w3.org/2000/svg" xmlns:xlink="http://www.w3.org/1999/xlink" width="2140" height="846.69"><rect width="2140" height="846.69" rx="0" ry="0" class="a"/><svg height="846.69" viewBox="0 0 214 84.669" width="2140" xmlns="http://www.w3.org/2000/svg" xmlns:xlink="http://www.w3.org/1999/xlink"><style>@keyframes k{0%{transform:translateX(0)}.04%{transform:translateX(-214px)}.05%{transform:translateX(-428px)}5.47%{transform:translateX(-642px)}5.84%{transform:translateX(-856px)}11.32%{transform:translateX(-1070px)}12.08%{transform:translateX(-1284px)}16.69%{transform:translateX(-1498px)}16.73%{transform:translateX(-1712px)}16.74%{transform:translateX(-1926px)}23.39%{transform:translateX(-2354px)}31.68%{transform:translateX(-2782px)}38.19%{transform:translateX(-3424px)}45.76%{transform:translateX(-3638px)}46.62%{transform:translateX(-3852px)}47.48%{transform:translateX(-4066px)}48.38%{transform:translateX(-4280px)}50.51%{transform:translateX(-4494px)}52.44%{transform:translateX(-4708px)}54.47%{transform:translateX(-4922px)}56.81%{transform:translateX(-5136px)}57.54%{transform:translateX(-5350px)}60.67%{transform:translateX(-5564px)}62.91%{transform:translateX(-5778px)}63.6%{transform:translateX(-5992px)}64.91%{transform:translateX(-6206px)}65.63%{transform:translateX(-6420px)}67.63%{transform:translateX(-6634px)}69.28%{transform:translateX(-6848px)}70%{transform:translateX(-7062px)}74%{transform:translateX(-7704px)}83.92%{transform:translateX(-8132px)}85.29%{transform:translateX(-8346px)}89.15%{transform:translateX(-8774px)}89.7%{transform:translateX(-8988px)}90.23%{transform:translateX(-9202px)}90.25%{transform:translateX(-9416px)}to{transform:translateX(-9630px)}}.a{fill:#282d35}.c{fill:#b9c0cb;white-space:pre}.d{fill:#dbab79}.d,.e,.f,.g,.h{white-space:pre}.e{fill:#b9c0cb;font-weight:700}.f,.g,.h{fill:#6f7783}.g,.h{fill:#a8cc8c}.h{fill:#66c2cd}</style><g font-family="Monaco,Consolas,Menlo,'Bitstream Vera Sans Mono','Powerline Symbols',monospace" font-size="1.67"><defs><symbol id="1"><text y="1.67" class="c">The</text><text x="4.008" y="1.67" class="c">default</text><text x="12.024" y="1.67" class="c">interactive</text><text x="24.048" y="1.67" class="c">shell</text><text x="30.06" y="1.67" class="c">is</text><text x="33.066" y="1.67" class="c">now</text><text x="37.074" y="1.67" class="c">zsh.</text></symbol><symbol id="2"><text y="1.67" class="c">To</text><text x="3.006" y="1.67" class="c">update</text><text x="10.02" y="1.67" class="c">your</text><text x="15.03" y="1.67" class="c">account</text><text x="23.046" y="1.67" class="c">to</text><text x="26.052" y="1.67" class="c">use</text><text x="30.06" y="1.67" class="c">zsh,</text><text x="35.07" y="1.67" class="c">please</text><text x="42.084" y="1.67" class="c">run</text><text x="46.092" y="1.67" class="c">`chsh</text><text x="52.104" y="1.67" class="c">-s</text><text x="55.11" y="1.67" class="c">/bin/zsh`.</text></symbol><symbol id="3"><text y="1.67" class="c">For</text><text x="4.008" y="1.67" class="c">more</text><text x="9.018" y="1.67" class="c">details,</text><text x="18.036" y="1.67" class="c">please</text><text x="25.05" y="1.67" class="c">visit</text><text x="31.062" y="1.67" class="c">https://support.apple.com/kb/HT208050.</text></symbol><symbol id="4"><text y="1.67" class="c">bash-3.2$</text></symbol><symbol id="5"><text y="1.67" class="c">bash-3.2$</text><text x="10.02" y="1.67" class="c">./near-cli</text></symbol><symbol id="6"><text y="1.67" class="d">?</text><text x="2.004" y="1.67" class="e">Choose</text><text x="9.018" y="1.67" class="e">your</text><text x="14.028" y="1.67" class="e">action</text><text x="21.042" y="1.67" class="f">›</text></symbol><symbol id="7"><text y="1.67" class="g">✔</text><text x="2.004" y="1.67" class="e">Choose</text><text x="9.018" y="1.67" class="e">your</text><text x="14.028" y="1.67" class="e">action</text><text x="21.042" y="1.67" class="f">·</text><text x="23.046" y="1.67" class="g">View</text><text x="28.056" y="1.67" class="g">account,</text><text x="37.074" y="1.67" class="g">contract</text><text x="46.092" y="1.67" class="g">code,</text><text x="52.104" y="1.67" class="g">contract</text><text x="61.122" y="1.67" class="g">state,</text><text x="68.136" y="1.67" class="g">transaction</text></symbol><symbol id="8"><text y="1.67" class="g">✔</text><text x="2.004" y="1.67" class="e">Сhoose</text><text x="9.018" y="1.67" class="e">what</text><text x="14.028" y="1.67" class="e">you</text><text x="18.036" y="1.67" class="e">want</text><text x="23.046" y="1.67" class="e">to</text><text x="26.052" y="1.67" class="e">view</text><text x="31.062" y="1.67" class="f">·</text><text x="33.066" y="1.67" class="g">View</text><text x="38.076" y="1.67" class="g">properties</text><text x="49.098" y="1.67" class="g">for</text><text x="53.106" y="1.67" class="g">an</text><text x="56.112" y="1.67" class="g">account</text></symbol><symbol id="9"><text y="1.67" class="g">✔</text><text x="2.004" y="1.67" class="e">Select</text><text x="9.018" y="1.67" class="e">NEAR</text><text x="14.028" y="1.67" class="e">protocol</text><text x="23.046" y="1.67" class="e">RPC</text><text x="27.054" y="1.67" class="e">server:</text><text x="35.07" y="1.67" class="f">·</text><text x="37.074" y="1.67" class="g">Testnet</text></symbol><symbol id="10"><text y="1.67" class="c">What</text><text x="5.01" y="1.67" class="c">Account</text><text x="13.026" y="1.67" class="c">ID</text><text x="16.032" y="1.67" class="c">do</text><text x="19.038" y="1.67" class="c">you</text><text x="23.046" y="1.67" class="c">need</text><text x="28.056" y="1.67" class="c">to</text><text x="31.062" y="1.67" class="c">view?:</text><text x="38.076" y="1.67" class="c">volodymyr.testnet</text></symbol><symbol id="11"><text y="1.67" class="g">❯</text><text x="2.004" y="1.67" class="h">View</text><text x="7.014" y="1.67" class="h">this</text><text x="12.024" y="1.67" class="h">account</text><text x="20.04" y="1.67" class="h">at</text><text x="23.046" y="1.67" class="h">final</text><text x="29.058" y="1.67" class="h">block</text></symbol><symbol id="12"><text x="2.004" y="1.67" class="c">View</text><text x="7.014" y="1.67" class="c">this</text><text x="12.024" y="1.67" class="c">account</text><text x="20.04" y="1.67" class="c">at</text><text x="23.046" y="1.67" class="c">block</text><text x="29.058" y="1.67" class="c">heigt</text></symbol><symbol id="13"><text x="2.004" y="1.67" class="c">View</text><text x="7.014" y="1.67" class="c">this</text><text x="12.024" y="1.67" class="c">account</text><text x="20.04" y="1.67" class="c">at</text><text x="23.046" y="1.67" class="c">block</text><text x="29.058" y="1.67" class="c">hash</text></symbol><symbol id="14"><text x="2.004" y="1.67" class="c">View</text><text x="7.014" y="1.67" class="c">this</text><text x="12.024" y="1.67" class="c">account</text><text x="20.04" y="1.67" class="c">at</text><text x="23.046" y="1.67" class="c">final</text><text x="29.058" y="1.67" class="c">block</text></symbol><symbol id="15"><text y="1.67" class="g">❯</text><text x="2.004" y="1.67" class="h">View</text><text x="7.014" y="1.67" class="h">this</text><text x="12.024" y="1.67" class="h">account</text><text x="20.04" y="1.67" class="h">at</text><text x="23.046" y="1.67" class="h">block</text><text x="29.058" y="1.67" class="h">heigt</text></symbol><symbol id="16"><text y="1.67" class="g">✔</text><text x="2.004" y="1.67" class="e">Choose</text><text x="9.018" y="1.67" class="e">your</text><text x="14.028" y="1.67" class="e">action</text><text x="21.042" y="1.67" class="f">·</text><text x="23.046" y="1.67" class="g">View</text><text x="28.056" y="1.67" class="g">this</text><text x="33.066" y="1.67" class="g">account</text><text x="41.082" y="1.67" class="g">at</text><text x="44.088" y="1.67" class="g">final</text><text x="50.1" y="1.67" class="g">block</text></symbol><symbol id="17"><text y="1.67" class="c">Account</text><text x="8.016" y="1.67" class="c">details</text><text x="16.032" y="1.67" class="c">for</text><text x="20.04" y="1.67" class="c">&apos;volodymyr.testnet&apos;</text><text x="40.08" y="1.67" class="c">at</text><text x="43.086" y="1.67" class="c">block</text><text x="49.098" y="1.67" class="c">#49788132</text><text x="59.118" y="1.67" class="c">(ApumAzJnz5bHnheUwtNNeiHW4nRJ8TZJgqQLBdns3c9d)</text></symbol><symbol id="18"><text y="1.67" class="c">Native</text><text x="7.014" y="1.67" class="c">account</text><text x="15.03" y="1.67" class="c">balance:</text><text x="24.048" y="1.67" class="c">256.718</text><text x="32.064" y="1.67" class="c">NEAR</text></symbol><symbol id="19"><text y="1.67" class="c">Validator</text><text x="10.02" y="1.67" class="c">stake:</text><text x="17.034" y="1.67" class="c">0</text><text x="19.038" y="1.67" class="c">NEAR</text></symbol><symbol id="20"><text y="1.67" class="c">Storage</text><text x="8.016" y="1.67" class="c">used</text><text x="13.026" y="1.67" class="c">by</text><text x="16.032" y="1.67" class="c">the</text><text x="20.04" y="1.67" class="c">account:</text><text x="29.058" y="1.67" class="c">115385</text><text x="36.072" y="1.67" class="c">bytes</text></symbol><symbol id="21"><text y="1.67" class="c">Contract</text><text x="9.018" y="1.67" class="c">code</text><text x="14.028" y="1.67" class="c">SHA-256</text><text x="22.044" y="1.67" class="c">checksum</text><text x="31.062" y="1.67" class="c">(hex):</text><text x="38.076" y="1.67" class="c">4de7df8ee6ff3780cfed298ceafde26e7477041ca8e2af7ae8c749de7068c0f2</text></symbol><symbol id="22"><text y="1.67" class="c">Number</text><text x="7.014" y="1.67" class="c">of</text><text x="10.02" y="1.67" class="c">access</text><text x="17.034" y="1.67" class="c">keys:</text><text x="23.046" y="1.67" class="c">7</text></symbol><symbol id="23"><text x="3.006" y="1.67" class="c">1.</text><text x="6.012" y="1.67" class="c">ed25519:2KZwhWEM5hbtP28kpx9TER3zyz9rL3Az1fcHsgr2Fzd1</text><text x="59.118" y="1.67" class="c">(nonce:</text><text x="67.134" y="1.67" class="c">9)</text><text x="70.14" y="1.67" class="c">is</text><text x="73.146" y="1.67" class="c">granted</text><text x="81.162" y="1.67" class="c">to</text><text x="84.168" y="1.67" class="c">full</text><text x="89.178" y="1.67" class="c">access</text></symbol><symbol id="24"><text x="3.006" y="1.67" class="c">2.</text><text x="6.012" y="1.67" class="c">ed25519:36u45LFDfgKQYr8ApgBi1kUHN5FpkTQRqvt66cwEdqiK</text><text x="59.118" y="1.67" class="c">(nonce:</text><text x="67.134" y="1.67" class="c">0)</text><text x="70.14" y="1.67" class="c">is</text><text x="73.146" y="1.67" class="c">granted</text><text x="81.162" y="1.67" class="c">to</text><text x="84.168" y="1.67" class="c">full</text><text x="89.178" y="1.67" class="c">access</text></symbol><symbol id="25"><text x="3.006" y="1.67" class="c">3.</text><text x="6.012" y="1.67" class="c">ed25519:7FmDRADa1v4BcLiiR9MPPdmWQp3Um1iPdAYATvBY1YzS</text><text x="59.118" y="1.67" class="c">(nonce:</text><text x="67.134" y="1.67" class="c">168)</text><text x="72.144" y="1.67" class="c">is</text><text x="75.15" y="1.67" class="c">granted</text><text x="83.166" y="1.67" class="c">to</text><text x="86.172" y="1.67" class="c">full</text><text x="91.182" y="1.67" class="c">access</text></symbol><symbol id="26"><text x="3.006" y="1.67" class="c">4.</text><text x="6.012" y="1.67" class="c">ed25519:8b6ghV9BLNNB7RwaxSxjbH636bfM9m6NL7bmLBSXPqK8</text><text x="59.118" y="1.67" class="c">(nonce:</text><text x="67.134" y="1.67" class="c">2)</text><text x="70.14" y="1.67" class="c">is</text><text x="73.146" y="1.67" class="c">granted</text><text x="81.162" y="1.67" class="c">to</text><text x="84.168" y="1.67" class="c">full</text><text x="89.178" y="1.67" class="c">access</text></symbol><symbol id="27"><text x="3.006" y="1.67" class="c">5.</text><text x="6.012" y="1.67" class="c">ed25519:937VyVwszEH13quNuPM4nNQTrDssNzRNnLMjPbN92tgu</text><text x="59.118" y="1.67" class="c">(nonce:</text><text x="67.134" y="1.67" class="c">3)</text><text x="70.14" y="1.67" class="c">is</text><text x="73.146" y="1.67" class="c">granted</text><text x="81.162" y="1.67" class="c">to</text><text x="84.168" y="1.67" class="c">full</text><text x="89.178" y="1.67" class="c">access</text></symbol><symbol id="28"><text x="3.006" y="1.67" class="c">6.</text><text x="6.012" y="1.67" class="c">ed25519:ApWodksvd7grTjFFimCroLxvrVDi7WD6g6gDE7RuhoGH</text><text x="59.118" y="1.67" class="c">(nonce:</text><text x="67.134" y="1.67" class="c">1)</text><text x="70.14" y="1.67" class="c">is</text><text x="73.146" y="1.67" class="c">granted</text><text x="81.162" y="1.67" class="c">to</text><text x="84.168" y="1.67" class="c">full</text><text x="89.178" y="1.67" class="c">access</text></symbol><symbol id="29"><text x="3.006" y="1.67" class="c">7.</text><text x="6.012" y="1.67" class="c">ed25519:JC5R9H6wjthHeumnUePRjvJNJrRm6ZTFUoi1NYuj9DBZ</text><text x="59.118" y="1.67" class="c">(nonce:</text><text x="67.134" y="1.67" class="c">0)</text><text x="70.14" y="1.67" class="c">is</text><text x="73.146" y="1.67" class="c">granted</text><text x="81.162" y="1.67" class="c">to</text><text x="84.168" y="1.67" class="c">full</text><text x="89.178" y="1.67" class="c">access</text></symbol><symbol id="a"><path fill="transparent" d="M0 0h214v39H0z"/></symbol><symbol id="b"><path fill="#6f7683" d="M0 0h1.102v2.171H0z"/></symbol></defs><path class="a" d="M0 0h214v84.669H0z"/><g style="animation-duration:23.229185s;animation-iteration-count:infinite;animation-name:k;animation-timing-function:steps(1,end)"><svg width="9844"><svg><use xlink:href="#a"/><use xlink:href="#b" x="-.004"/></svg><svg x="214"><use xlink:href="#a"/><use xlink:href="#b" x="-.004" y="8.659"/><use xlink:href="#1" y="2.171"/><use xlink:href="#2" y="4.342"/><use xlink:href="#3" y="6.513"/></svg><svg x="428"><use xlink:href="#a"/><use xlink:href="#b" x="9.996" y="8.659"/><use xlink:href="#1" y="2.171"/><use xlink:href="#2" y="4.342"/><use xlink:href="#3" y="6.513"/><use xlink:href="#4" y="8.684"/></svg><svg x="642"><use xlink:href="#a"/><use xlink:href="#b" x="10.996" y="8.659"/><use xlink:href="#1" y="2.171"/><use xlink:href="#2" y="4.342"/><use xlink:href="#3" y="6.513"/><text y="10.354" class="c">bash-3.2$</text><text x="10.02" y="10.354" class="c">.</text></svg><svg x="856"><use xlink:href="#a"/><use xlink:href="#b" x="11.996" y="8.659"/><use xlink:href="#1" y="2.171"/><use xlink:href="#2" y="4.342"/><use xlink:href="#3" y="6.513"/><text y="10.354" class="c">bash-3.2$</text><text x="10.02" y="10.354" class="c">./</text></svg><svg x="1070"><use xlink:href="#a"/><use xlink:href="#b" x="12.996" y="8.659"/><use xlink:href="#1" y="2.171"/><use xlink:href="#2" y="4.342"/><use xlink:href="#3" y="6.513"/><text y="10.354" class="c">bash-3.2$</text><text x="10.02" y="10.354" class="c">./n</text></svg><svg x="1284"><use xlink:href="#a"/><use xlink:href="#b" x="20.996" y="8.659"/><use xlink:href="#1" y="2.171"/><use xlink:href="#2" y="4.342"/><use xlink:href="#3" y="6.513"/><use xlink:href="#5" y="8.684"/></svg><svg x="1498"><use xlink:href="#a"/><use xlink:href="#b" x="-.004" y="10.83"/><use xlink:href="#1" y="2.171"/><use xlink:href="#2" y="4.342"/><use xlink:href="#3" y="6.513"/><use xlink:href="#5" y="8.684"/></svg><svg x="1712"><use xlink:href="#a"/><use xlink:href="#b" x="-.004" y="13.001"/><use xlink:href="#1" y="2.171"/><use xlink:href="#2" y="4.342"/><use xlink:href="#3" y="6.513"/><use xlink:href="#5" y="8.684"/></svg><svg x="1926"><use xlink:href="#a"/><use xlink:href="#1" y="2.171"/><use xlink:href="#2" y="4.342"/><use xlink:href="#3" y="6.513"/><use xlink:href="#5" y="8.684"/><use xlink:href="#6" y="13.026"/><text y="16.867" class="g">❯</text><text x="2.004" y="16.867" class="h">View</text><text x="7.014" y="16.867" class="h">account,</text><text x="16.032" y="16.867" class="h">contract</text><text x="25.05" y="16.867" class="h">code,</text><text x="31.062" y="16.867" class="h">contract</text><text x="40.08" y="16.867" class="h">state,</text><text x="47.094" y="16.867" class="h">transaction</text><text x="2.004" y="19.038" class="c">Transfer</text><text x="11.022" y="19.038" class="c">tokens</text><text x="2.004" y="21.209" class="c">Execute</text><text x="10.02" y="21.209" class="c">function</text><text x="19.038" y="21.209" class="c">(contract</text><text x="29.058" y="21.209" class="c">method)</text><text x="2.004" y="23.38" class="c">Add</text><text x="6.012" y="23.38" class="c">access</text><text x="13.026" y="23.38" class="c">key,</text><text x="18.036" y="23.38" class="c">contract</text><text x="27.054" y="23.38" class="c">code,</text><text x="33.066" y="23.38" class="c">stake</text><text x="39.078" y="23.38" class="c">proposal,</text><text x="49.098" y="23.38" class="c">sub-account,</text><text x="62.124" y="23.38" class="c">implicit-account</text><text x="2.004" y="25.551" class="c">Delete</text><text x="9.018" y="25.551" class="c">access</text><text x="16.032" y="25.551" class="c">key,</text><text x="21.042" y="25.551" class="c">account</text><text x="2.004" y="27.722" class="c">Construct</text><text x="12.024" y="27.722" class="c">a</text><text x="14.028" y="27.722" class="c">new</text><text x="18.036" y="27.722" class="c">transaction</text><text x="2.004" y="29.893" class="c">Helpers</text></svg><svg x="2140"><use xlink:href="#a"/><use xlink:href="#1" y="2.171"/><use xlink:href="#2" y="4.342"/><use xlink:href="#3" y="6.513"/><use xlink:href="#5" y="8.684"/></svg><svg x="2354"><use xlink:href="#a"/><use xlink:href="#1" y="2.171"/><use xlink:href="#2" y="4.342"/><use xlink:href="#3" y="6.513"/><use xlink:href="#5" y="8.684"/><use xlink:href="#7" y="13.026"/><text y="19.038" class="d">?</text><text x="2.004" y="19.038" class="e">Сhoose</text><text x="9.018" y="19.038" class="e">what</text><text x="14.028" y="19.038" class="e">you</text><text x="18.036" y="19.038" class="e">want</text><text x="23.046" y="19.038" class="e">to</text><text x="26.052" y="19.038" class="e">view</text><text x="31.062" y="19.038" class="f">›</text><text y="21.209" class="g">❯</text><text x="2.004" y="21.209" class="h">View</text><text x="7.014" y="21.209" class="h">properties</text><text x="18.036" y="21.209" class="h">for</text><text x="22.044" y="21.209" class="h">an</text><text x="25.05" y="21.209" class="h">account</text><text x="2.004" y="23.38" class="c">View</text><text x="7.014" y="23.38" class="c">a</text><text x="9.018" y="23.38" class="c">contract</text><text x="18.036" y="23.38" class="c">code</text><text x="2.004" y="25.551" class="c">View</text><text x="7.014" y="25.551" class="c">a</text><text x="9.018" y="25.551" class="c">contract</text><text x="18.036" y="25.551" class="c">state</text><text x="2.004" y="27.722" class="c">View</text><text x="7.014" y="27.722" class="c">a</text><text x="9.018" y="27.722" class="c">transaction</text><text x="21.042" y="27.722" class="c">status</text></svg><svg x="2568"><use xlink:href="#a"/><use xlink:href="#1" y="2.171"/><use xlink:href="#2" y="4.342"/><use xlink:href="#3" y="6.513"/><use xlink:href="#5" y="8.684"/><use xlink:href="#7" y="13.026"/></svg><svg x="2782"><use xlink:href="#a"/><use xlink:href="#1" y="2.171"/><use xlink:href="#2" y="4.342"/><use xlink:href="#3" y="6.513"/><use xlink:href="#5" y="8.684"/><use xlink:href="#7" y="13.026"/><use xlink:href="#8" y="17.368"/><text y="23.38" class="d">?</text><text x="2.004" y="23.38" class="e">Select</text><text x="9.018" y="23.38" class="e">NEAR</text><text x="14.028" y="23.38" class="e">protocol</text><text x="23.046" y="23.38" class="e">RPC</text><text x="27.054" y="23.38" class="e">server:</text><text x="35.07" y="23.38" class="f">›</text><text y="25.551" class="g">❯</text><text x="2.004" y="25.551" class="h">Testnet</text><text x="2.004" y="27.722" class="c">Mainnet</text><text x="2.004" y="29.893" class="c">Betanet</text><text x="2.004" y="32.064" class="c">Custom</text></svg><svg x="2996"><use xlink:href="#a"/><use xlink:href="#1" y="2.171"/><use xlink:href="#2" y="4.342"/><use xlink:href="#3" y="6.513"/><use xlink:href="#5" y="8.684"/><use xlink:href="#7" y="13.026"/><use xlink:href="#8" y="17.368"/></svg><svg x="3210"><use xlink:href="#a"/><use xlink:href="#b" x="-.004" y="23.856"/><use xlink:href="#1" y="2.171"/><use xlink:href="#2" y="4.342"/><use xlink:href="#3" y="6.513"/><use xlink:href="#5" y="8.684"/><use xlink:href="#7" y="13.026"/><use xlink:href="#8" y="17.368"/><use xlink:href="#9" y="21.71"/></svg><svg x="3424"><use xlink:href="#a"/><use xlink:href="#b" x="37.996" y="26.027"/><use xlink:href="#1" y="2.171"/><use xlink:href="#2" y="4.342"/><use xlink:href="#3" y="6.513"/><use xlink:href="#5" y="8.684"/><use xlink:href="#7" y="13.026"/><use xlink:href="#8" y="17.368"/><use xlink:href="#9" y="21.71"/><text y="27.722" class="c">What</text><text x="5.01" y="27.722" class="c">Account</text><text x="13.026" y="27.722" class="c">ID</text><text x="16.032" y="27.722" class="c">do</text><text x="19.038" y="27.722" class="c">you</text><text x="23.046" y="27.722" class="c">need</text><text x="28.056" y="27.722" class="c">to</text><text x="31.062" y="27.722" class="c">view?:</text></svg><svg x="3638"><use xlink:href="#a"/><use xlink:href="#b" x="38.996" y="26.027"/><use xlink:href="#1" y="2.171"/><use xlink:href="#2" y="4.342"/><use xlink:href="#3" y="6.513"/><use xlink:href="#5" y="8.684"/><use xlink:href="#7" y="13.026"/><use xlink:href="#8" y="17.368"/><use xlink:href="#9" y="21.71"/><text y="27.722" class="c">What</text><text x="5.01" y="27.722" class="c">Account</text><text x="13.026" y="27.722" class="c">ID</text><text x="16.032" y="27.722" class="c">do</text><text x="19.038" y="27.722" class="c">you</text><text x="23.046" y="27.722" class="c">need</text><text x="28.056" y="27.722" class="c">to</text><text x="31.062" y="27.722" class="c">view?:</text><text x="38.076" y="27.722" class="c">v</text></svg><svg x="3852"><use xlink:href="#a"/><use xlink:href="#b" x="39.996" y="26.027"/><use xlink:href="#1" y="2.171"/><use xlink:href="#2" y="4.342"/><use xlink:href="#3" y="6.513"/><use xlink:href="#5" y="8.684"/><use xlink:href="#7" y="13.026"/><use xlink:href="#8" y="17.368"/><use xlink:href="#9" y="21.71"/><text y="27.722" class="c">What</text><text x="5.01" y="27.722" class="c">Account</text><text x="13.026" y="27.722" class="c">ID</text><text x="16.032" y="27.722" class="c">do</text><text x="19.038" y="27.722" class="c">you</text><text x="23.046" y="27.722" class="c">need</text><text x="28.056" y="27.722" class="c">to</text><text x="31.062" y="27.722" class="c">view?:</text><text x="38.076" y="27.722" class="c">vo</text></svg><svg x="4066"><use xlink:href="#a"/><use xlink:href="#b" x="40.996" y="26.027"/><use xlink:href="#1" y="2.171"/><use xlink:href="#2" y="4.342"/><use xlink:href="#3" y="6.513"/><use xlink:href="#5" y="8.684"/><use xlink:href="#7" y="13.026"/><use xlink:href="#8" y="17.368"/><use xlink:href="#9" y="21.71"/><text y="27.722" class="c">What</text><text x="5.01" y="27.722" class="c">Account</text><text x="13.026" y="27.722" class="c">ID</text><text x="16.032" y="27.722" class="c">do</text><text x="19.038" y="27.722" class="c">you</text><text x="23.046" y="27.722" class="c">need</text><text x="28.056" y="27.722" class="c">to</text><text x="31.062" y="27.722" class="c">view?:</text><text x="38.076" y="27.722" class="c">vol</text></svg><svg x="4280"><use xlink:href="#a"/><use xlink:href="#b" x="41.996" y="26.027"/><use xlink:href="#1" y="2.171"/><use xlink:href="#2" y="4.342"/><use xlink:href="#3" y="6.513"/><use xlink:href="#5" y="8.684"/><use xlink:href="#7" y="13.026"/><use xlink:href="#8" y="17.368"/><use xlink:href="#9" y="21.71"/><text y="27.722" class="c">What</text><text x="5.01" y="27.722" class="c">Account</text><text x="13.026" y="27.722" class="c">ID</text><text x="16.032" y="27.722" class="c">do</text><text x="19.038" y="27.722" class="c">you</text><text x="23.046" y="27.722" class="c">need</text><text x="28.056" y="27.722" class="c">to</text><text x="31.062" y="27.722" class="c">view?:</text><text x="38.076" y="27.722" class="c">volo</text></svg><svg x="4494"><use xlink:href="#a"/><use xlink:href="#b" x="42.996" y="26.027"/><use xlink:href="#1" y="2.171"/><use xlink:href="#2" y="4.342"/><use xlink:href="#3" y="6.513"/><use xlink:href="#5" y="8.684"/><use xlink:href="#7" y="13.026"/><use xlink:href="#8" y="17.368"/><use xlink:href="#9" y="21.71"/><text y="27.722" class="c">What</text><text x="5.01" y="27.722" class="c">Account</text><text x="13.026" y="27.722" class="c">ID</text><text x="16.032" y="27.722" class="c">do</text><text x="19.038" y="27.722" class="c">you</text><text x="23.046" y="27.722" class="c">need</text><text x="28.056" y="27.722" class="c">to</text><text x="31.062" y="27.722" class="c">view?:</text><text x="38.076" y="27.722" class="c">volod</text></svg><svg x="4708"><use xlink:href="#a"/><use xlink:href="#b" x="43.996" y="26.027"/><use xlink:href="#1" y="2.171"/><use xlink:href="#2" y="4.342"/><use xlink:href="#3" y="6.513"/><use xlink:href="#5" y="8.684"/><use xlink:href="#7" y="13.026"/><use xlink:href="#8" y="17.368"/><use xlink:href="#9" y="21.71"/><text y="27.722" class="c">What</text><text x="5.01" y="27.722" class="c">Account</text><text x="13.026" y="27.722" class="c">ID</text><text x="16.032" y="27.722" class="c">do</text><text x="19.038" y="27.722" class="c">you</text><text x="23.046" y="27.722" class="c">need</text><text x="28.056" y="27.722" class="c">to</text><text x="31.062" y="27.722" class="c">view?:</text><text x="38.076" y="27.722" class="c">volody</text></svg><svg x="4922"><use xlink:href="#a"/><use xlink:href="#b" x="44.996" y="26.027"/><use xlink:href="#1" y="2.171"/><use xlink:href="#2" y="4.342"/><use xlink:href="#3" y="6.513"/><use xlink:href="#5" y="8.684"/><use xlink:href="#7" y="13.026"/><use xlink:href="#8" y="17.368"/><use xlink:href="#9" y="21.71"/><text y="27.722" class="c">What</text><text x="5.01" y="27.722" class="c">Account</text><text x="13.026" y="27.722" class="c">ID</text><text x="16.032" y="27.722" class="c">do</text><text x="19.038" y="27.722" class="c">you</text><text x="23.046" y="27.722" class="c">need</text><text x="28.056" y="27.722" class="c">to</text><text x="31.062" y="27.722" class="c">view?:</text><text x="38.076" y="27.722" class="c">volodym</text></svg><svg x="5136"><use xlink:href="#a"/><use xlink:href="#b" x="45.996" y="26.027"/><use xlink:href="#1" y="2.171"/><use xlink:href="#2" y="4.342"/><use xlink:href="#3" y="6.513"/><use xlink:href="#5" y="8.684"/><use xlink:href="#7" y="13.026"/><use xlink:href="#8" y="17.368"/><use xlink:href="#9" y="21.71"/><text y="27.722" class="c">What</text><text x="5.01" y="27.722" class="c">Account</text><text x="13.026" y="27.722" class="c">ID</text><text x="16.032" y="27.722" class="c">do</text><text x="19.038" y="27.722" class="c">you</text><text x="23.046" y="27.722" class="c">need</text><text x="28.056" y="27.722" class="c">to</text><text x="31.062" y="27.722" class="c">view?:</text><text x="38.076" y="27.722" class="c">volodymy</text></svg><svg x="5350"><use xlink:href="#a"/><use xlink:href="#b" x="46.996" y="26.027"/><use xlink:href="#1" y="2.171"/><use xlink:href="#2" y="4.342"/><use xlink:href="#3" y="6.513"/><use xlink:href="#5" y="8.684"/><use xlink:href="#7" y="13.026"/><use xlink:href="#8" y="17.368"/><use xlink:href="#9" y="21.71"/><text y="27.722" class="c">What</text><text x="5.01" y="27.722" class="c">Account</text><text x="13.026" y="27.722" class="c">ID</text><text x="16.032" y="27.722" class="c">do</text><text x="19.038" y="27.722" class="c">you</text><text x="23.046" y="27.722" class="c">need</text><text x="28.056" y="27.722" class="c">to</text><text x="31.062" y="27.722" class="c">view?:</text><text x="38.076" y="27.722" class="c">volodymyr</text></svg><svg x="5564"><use xlink:href="#a"/><use xlink:href="#b" x="47.996" y="26.027"/><use xlink:href="#1" y="2.171"/><use xlink:href="#2" y="4.342"/><use xlink:href="#3" y="6.513"/><use xlink:href="#5" y="8.684"/><use xlink:href="#7" y="13.026"/><use xlink:href="#8" y="17.368"/><use xlink:href="#9" y="21.71"/><text y="27.722" class="c">What</text><text x="5.01" y="27.722" class="c">Account</text><text x="13.026" y="27.722" class="c">ID</text><text x="16.032" y="27.722" class="c">do</text><text x="19.038" y="27.722" class="c">you</text><text x="23.046" y="27.722" class="c">need</text><text x="28.056" y="27.722" class="c">to</text><text x="31.062" y="27.722" class="c">view?:</text><text x="38.076" y="27.722" class="c">volodymyr.</text></svg><svg x="5778"><use xlink:href="#a"/><use xlink:href="#b" x="48.996" y="26.027"/><use xlink:href="#1" y="2.171"/><use xlink:href="#2" y="4.342"/><use xlink:href="#3" y="6.513"/><use xlink:href="#5" y="8.684"/><use xlink:href="#7" y="13.026"/><use xlink:href="#8" y="17.368"/><use xlink:href="#9" y="21.71"/><text y="27.722" class="c">What</text><text x="5.01" y="27.722" class="c">Account</text><text x="13.026" y="27.722" class="c">ID</text><text x="16.032" y="27.722" class="c">do</text><text x="19.038" y="27.722" class="c">you</text><text x="23.046" y="27.722" class="c">need</text><text x="28.056" y="27.722" class="c">to</text><text x="31.062" y="27.722" class="c">view?:</text><text x="38.076" y="27.722" class="c">volodymyr.t</text></svg><svg x="5992"><use xlink:href="#a"/><use xlink:href="#b" x="49.996" y="26.027"/><use xlink:href="#1" y="2.171"/><use xlink:href="#2" y="4.342"/><use xlink:href="#3" y="6.513"/><use xlink:href="#5" y="8.684"/><use xlink:href="#7" y="13.026"/><use xlink:href="#8" y="17.368"/><use xlink:href="#9" y="21.71"/><text y="27.722" class="c">What</text><text x="5.01" y="27.722" class="c">Account</text><text x="13.026" y="27.722" class="c">ID</text><text x="16.032" y="27.722" class="c">do</text><text x="19.038" y="27.722" class="c">you</text><text x="23.046" y="27.722" class="c">need</text><text x="28.056" y="27.722" class="c">to</text><text x="31.062" y="27.722" class="c">view?:</text><text x="38.076" y="27.722" class="c">volodymyr.te</text></svg><svg x="6206"><use xlink:href="#a"/><use xlink:href="#b" x="50.996" y="26.027"/><use xlink:href="#1" y="2.171"/><use xlink:href="#2" y="4.342"/><use xlink:href="#3" y="6.513"/><use xlink:href="#5" y="8.684"/><use xlink:href="#7" y="13.026"/><use xlink:href="#8" y="17.368"/><use xlink:href="#9" y="21.71"/><text y="27.722" class="c">What</text><text x="5.01" y="27.722" class="c">Account</text><text x="13.026" y="27.722" class="c">ID</text><text x="16.032" y="27.722" class="c">do</text><text x="19.038" y="27.722" class="c">you</text><text x="23.046" y="27.722" class="c">need</text><text x="28.056" y="27.722" class="c">to</text><text x="31.062" y="27.722" class="c">view?:</text><text x="38.076" y="27.722" class="c">volodymyr.tes</text></svg><svg x="6420"><use xlink:href="#a"/><use xlink:href="#b" x="51.996" y="26.027"/><use xlink:href="#1" y="2.171"/><use xlink:href="#2" y="4.342"/><use xlink:href="#3" y="6.513"/><use xlink:href="#5" y="8.684"/><use xlink:href="#7" y="13.026"/><use xlink:href="#8" y="17.368"/><use xlink:href="#9" y="21.71"/><text y="27.722" class="c">What</text><text x="5.01" y="27.722" class="c">Account</text><text x="13.026" y="27.722" class="c">ID</text><text x="16.032" y="27.722" class="c">do</text><text x="19.038" y="27.722" class="c">you</text><text x="23.046" y="27.722" class="c">need</text><text x="28.056" y="27.722" class="c">to</text><text x="31.062" y="27.722" class="c">view?:</text><text x="38.076" y="27.722" class="c">volodymyr.test</text></svg><svg x="6634"><use xlink:href="#a"/><use xlink:href="#b" x="52.996" y="26.027"/><use xlink:href="#1" y="2.171"/><use xlink:href="#2" y="4.342"/><use xlink:href="#3" y="6.513"/><use xlink:href="#5" y="8.684"/><use xlink:href="#7" y="13.026"/><use xlink:href="#8" y="17.368"/><use xlink:href="#9" y="21.71"/><text y="27.722" class="c">What</text><text x="5.01" y="27.722" class="c">Account</text><text x="13.026" y="27.722" class="c">ID</text><text x="16.032" y="27.722" class="c">do</text><text x="19.038" y="27.722" class="c">you</text><text x="23.046" y="27.722" class="c">need</text><text x="28.056" y="27.722" class="c">to</text><text x="31.062" y="27.722" class="c">view?:</text><text x="38.076" y="27.722" class="c">volodymyr.testn</text></svg><svg x="6848"><use xlink:href="#a"/><use xlink:href="#b" x="53.996" y="26.027"/><use xlink:href="#1" y="2.171"/><use xlink:href="#2" y="4.342"/><use xlink:href="#3" y="6.513"/><use xlink:href="#5" y="8.684"/><use xlink:href="#7" y="13.026"/><use xlink:href="#8" y="17.368"/><use xlink:href="#9" y="21.71"/><text y="27.722" class="c">What</text><text x="5.01" y="27.722" class="c">Account</text><text x="13.026" y="27.722" class="c">ID</text><text x="16.032" y="27.722" class="c">do</text><text x="19.038" y="27.722" class="c">you</text><text x="23.046" y="27.722" class="c">need</text><text x="28.056" y="27.722" class="c">to</text><text x="31.062" y="27.722" class="c">view?:</text><text x="38.076" y="27.722" class="c">volodymyr.testne</text></svg><svg x="7062"><use xlink:href="#a"/><use xlink:href="#b" x="54.996" y="26.027"/><use xlink:href="#1" y="2.171"/><use xlink:href="#2" y="4.342"/><use xlink:href="#3" y="6.513"/><use xlink:href="#5" y="8.684"/><use xlink:href="#7" y="13.026"/><use xlink:href="#8" y="17.368"/><use xlink:href="#9" y="21.71"/><use xlink:href="#10" y="26.052"/></svg><svg x="7276"><use xlink:href="#a"/><use xlink:href="#b" x="-.004" y="28.198"/><use xlink:href="#1" y="2.171"/><use xlink:href="#2" y="4.342"/><use xlink:href="#3" y="6.513"/><use xlink:href="#5" y="8.684"/><use xlink:href="#7" y="13.026"/><use xlink:href="#8" y="17.368"/><use xlink:href="#9" y="21.71"/><use xlink:href="#10" y="26.052"/></svg><svg x="7490"><use xlink:href="#a"/><use xlink:href="#b" x="-.004" y="30.369"/><use xlink:href="#1" y="2.171"/><use xlink:href="#2" y="4.342"/><use xlink:href="#3" y="6.513"/><use xlink:href="#5" y="8.684"/><use xlink:href="#7" y="13.026"/><use xlink:href="#8" y="17.368"/><use xlink:href="#9" y="21.71"/><use xlink:href="#10" y="26.052"/></svg><svg x="7704"><use xlink:href="#a"/><use xlink:href="#1" y="2.171"/><use xlink:href="#2" y="4.342"/><use xlink:href="#3" y="6.513"/><use xlink:href="#5" y="8.684"/><use xlink:href="#7" y="13.026"/><use xlink:href="#8" y="17.368"/><use xlink:href="#9" y="21.71"/><use xlink:href="#10" y="26.052"/><use xlink:href="#6" y="30.394"/><use xlink:href="#11" y="32.565"/><use xlink:href="#12" y="34.736"/><use xlink:href="#13" y="36.907"/></svg><svg x="7918"><use xlink:href="#a"/><use xlink:href="#1" y="2.171"/><use xlink:href="#2" y="4.342"/><use xlink:href="#3" y="6.513"/><use xlink:href="#5" y="8.684"/><use xlink:href="#7" y="13.026"/><use xlink:href="#8" y="17.368"/><use xlink:href="#9" y="21.71"/><use xlink:href="#10" y="26.052"/><use xlink:href="#6" y="30.394"/><use xlink:href="#14" y="32.565"/><use xlink:href="#15" y="34.736"/><use xlink:href="#13" y="36.907"/></svg><svg x="8132"><use xlink:href="#a"/><use xlink:href="#1" y="2.171"/><use xlink:href="#2" y="4.342"/><use xlink:href="#3" y="6.513"/><use xlink:href="#5" y="8.684"/><use xlink:href="#7" y="13.026"/><use xlink:href="#8" y="17.368"/><use xlink:href="#9" y="21.71"/><use xlink:href="#10" y="26.052"/><use xlink:href="#6" y="30.394"/><use xlink:href="#14" y="32.565"/><use xlink:href="#15" y="34.736"/><use xlink:href="#13" y="36.907"/></svg><svg x="8346"><use xlink:href="#a"/><use xlink:href="#1" y="2.171"/><use xlink:href="#2" y="4.342"/><use xlink:href="#3" y="6.513"/><use xlink:href="#5" y="8.684"/><use xlink:href="#7" y="13.026"/><use xlink:href="#8" y="17.368"/><use xlink:href="#9" y="21.71"/><use xlink:href="#10" y="26.052"/><use xlink:href="#6" y="30.394"/><use xlink:href="#11" y="32.565"/><use xlink:href="#12" y="34.736"/><use xlink:href="#13" y="36.907"/></svg><svg x="8560"><use xlink:href="#a"/><use xlink:href="#b" x="-.004" y="32.54"/><use xlink:href="#1" y="2.171"/><use xlink:href="#2" y="4.342"/><use xlink:href="#3" y="6.513"/><use xlink:href="#5" y="8.684"/><use xlink:href="#7" y="13.026"/><use xlink:href="#8" y="17.368"/><use xlink:href="#9" y="21.71"/><use xlink:href="#10" y="26.052"/><use xlink:href="#16" y="30.394"/></svg><svg x="8774"><use xlink:href="#a"/><use xlink:href="#b" x="-.004" y="34.711"/><use xlink:href="#1" y="2.171"/><use xlink:href="#2" y="4.342"/><use xlink:href="#3" y="6.513"/><use xlink:href="#5" y="8.684"/><use xlink:href="#7" y="13.026"/><use xlink:href="#8" y="17.368"/><use xlink:href="#9" y="21.71"/><use xlink:href="#10" y="26.052"/><use xlink:href="#16" y="30.394"/></svg><svg x="8988"><use xlink:href="#a"/><use xlink:href="#b" x="-.004" y="45.566"/><use xlink:href="#1" y="2.171"/><use xlink:href="#2" y="4.342"/><use xlink:href="#3" y="6.513"/><use xlink:href="#5" y="8.684"/><use xlink:href="#7" y="13.026"/><use xlink:href="#8" y="17.368"/><use xlink:href="#9" y="21.71"/><use xlink:href="#10" y="26.052"/><use xlink:href="#16" y="30.394"/><use xlink:href="#17" y="34.736"/><use xlink:href="#18" y="36.907"/><use xlink:href="#19" y="39.078"/><use xlink:href="#20" y="41.249"/><use xlink:href="#21" y="43.42"/></svg><svg x="9202"><use xlink:href="#a"/><use xlink:href="#b" x="-.004" y="62.934"/><use xlink:href="#1" y="2.171"/><use xlink:href="#2" y="4.342"/><use xlink:href="#3" y="6.513"/><use xlink:href="#5" y="8.684"/><use xlink:href="#7" y="13.026"/><use xlink:href="#8" y="17.368"/><use xlink:href="#9" y="21.71"/><use xlink:href="#10" y="26.052"/><use xlink:href="#16" y="30.394"/><use xlink:href="#17" y="34.736"/><use xlink:href="#18" y="36.907"/><use xlink:href="#19" y="39.078"/><use xlink:href="#20" y="41.249"/><use xlink:href="#21" y="43.42"/><use xlink:href="#22" y="45.591"/><use xlink:href="#23" y="47.762"/><use xlink:href="#24" y="49.933"/><use xlink:href="#25" y="52.104"/><use xlink:href="#26" y="54.275"/><use xlink:href="#27" y="56.446"/><use xlink:href="#28" y="58.617"/><use xlink:href="#29" y="60.788"/></svg><svg x="9416"><use xlink:href="#a"/><use xlink:href="#b" x="9.996" y="62.934"/><use xlink:href="#1" y="2.171"/><use xlink:href="#2" y="4.342"/><use xlink:href="#3" y="6.513"/><use xlink:href="#5" y="8.684"/><use xlink:href="#7" y="13.026"/><use xlink:href="#8" y="17.368"/><use xlink:href="#9" y="21.71"/><use xlink:href="#10" y="26.052"/><use xlink:href="#16" y="30.394"/><use xlink:href="#17" y="34.736"/><use xlink:href="#18" y="36.907"/><use xlink:href="#19" y="39.078"/><use xlink:href="#20" y="41.249"/><use xlink:href="#21" y="43.42"/><use xlink:href="#22" y="45.591"/><use xlink:href="#23" y="47.762"/><use xlink:href="#24" y="49.933"/><use xlink:href="#25" y="52.104"/><use xlink:href="#26" y="54.275"/><use xlink:href="#27" y="56.446"/><use xlink:href="#28" y="58.617"/><use xlink:href="#29" y="60.788"/><use xlink:href="#4" y="62.959"/></svg><svg x="9630"><use xlink:href="#a"/><use xlink:href="#b" x="-.004" y="65.105"/><use xlink:href="#1" y="2.171"/><use xlink:href="#2" y="4.342"/><use xlink:href="#3" y="6.513"/><use xlink:href="#5" y="8.684"/><use xlink:href="#7" y="13.026"/><use xlink:href="#8" y="17.368"/><use xlink:href="#9" y="21.71"/><use xlink:href="#10" y="26.052"/><use xlink:href="#16" y="30.394"/><use xlink:href="#17" y="34.736"/><use xlink:href="#18" y="36.907"/><use xlink:href="#19" y="39.078"/><use xlink:href="#20" y="41.249"/><use xlink:href="#21" y="43.42"/><use xlink:href="#22" y="45.591"/><use xlink:href="#23" y="47.762"/><use xlink:href="#24" y="49.933"/><use xlink:href="#25" y="52.104"/><use xlink:href="#26" y="54.275"/><use xlink:href="#27" y="56.446"/><use xlink:href="#28" y="58.617"/><use xlink:href="#29" y="60.788"/><text y="64.629" class="c">bash-3.2$</text><text x="10.02" y="64.629" class="c">exit</text></svg></svg></g></g></svg></svg>