<svg xmlns="http://www.w3.org/2000/svg" xmlns:xlink="http://www.w3.org/1999/xlink" width="1200" height="700"><rect width="2180" height="906.69" rx="5" ry="5" class="a"/><svg y="0%" x="0%"><circle cx="20" cy="20" r="6" fill="#ff5f58"/><circle cx="40" cy="20" r="6" fill="#ffbd2e"/><circle cx="60" cy="20" r="6" fill="#18c132"/></svg><svg height="846.69" viewBox="0 0 214 84.669" width="2140" x="15" xmlns="http://www.w3.org/2000/svg" xmlns:xlink="http://www.w3.org/1999/xlink" y="50"><style>@keyframes n{0%{transform:translateX(0)}.04%{transform:translateX(-214px)}.05%{transform:translateX(-428px)}5.47%{transform:translateX(-642px)}5.84%{transform:translateX(-856px)}11.32%{transform:translateX(-1070px)}12.08%{transform:translateX(-1284px)}16.69%{transform:translateX(-1498px)}16.73%{transform:translateX(-1712px)}16.74%{transform:translateX(-1926px)}23.39%{transform:translateX(-2354px)}31.68%{transform:translateX(-2782px)}38.19%{transform:translateX(-3424px)}45.76%{transform:translateX(-3638px)}46.62%{transform:translateX(-3852px)}47.48%{transform:translateX(-4066px)}48.38%{transform:translateX(-4280px)}50.51%{transform:translateX(-4494px)}52.44%{transform:translateX(-4708px)}54.47%{transform:translateX(-4922px)}56.81%{transform:translateX(-5136px)}57.54%{transform:translateX(-5350px)}60.67%{transform:translateX(-5564px)}62.91%{transform:translateX(-5778px)}63.6%{transform:translateX(-5992px)}64.91%{transform:translateX(-6206px)}65.63%{transform:translateX(-6420px)}67.63%{transform:translateX(-6634px)}69.28%{transform:translateX(-6848px)}70%{transform:translateX(-7062px)}74%{transform:translateX(-7704px)}83.92%{transform:translateX(-8132px)}85.29%{transform:translateX(-8346px)}89.15%{transform:translateX(-8774px)}89.7%{transform:translateX(-8988px)}90.23%{transform:translateX(-9202px)}90.25%{transform:translateX(-9416px)}to{transform:translateX(-9630px)}}.a{fill:#282d35}.f{fill:#b9c0cb;white-space:pre}.g{fill:#dbab79}.g,.h,.i,.j,.k{white-space:pre}.h{fill:#b9c0cb;font-weight:700}.i,.j,.k{fill:#6f7783}.j,.k{fill:#a8cc8c}.k{fill:#66c2cd}</style><g font-family="Monaco,Consolas,Menlo,'Bitstream Vera Sans Mono','Powerline Symbols',monospace" font-size="1.67"><defs><symbol id="1"><text y="1.67" class="f">The</text><text x="4.008" y="1.67" class="f">default</text><text x="12.024" y="1.67" class="f">interactive</text><text x="24.048" y="1.67" class="f">shell</text><text x="30.06" y="1.67" class="f">is</text><text x="33.066" y="1.67" class="f">now</text><text x="37.074" y="1.67" class="f">zsh.</text></symbol><symbol id="2"><text y="1.67" class="f">To</text><text x="3.006" y="1.67" class="f">update</text><text x="10.02" y="1.67" class="f">your</text><text x="15.03" y="1.67" class="f">account</text><text x="23.046" y="1.67" class="f">to</text><text x="26.052" y="1.67" class="f">use</text><text x="30.06" y="1.67" class="f">zsh,</text><text x="35.07" y="1.67" class="f">please</text><text x="42.084" y="1.67" class="f">run</text><text x="46.092" y="1.67" class="f">`chsh</text><text x="52.104" y="1.67" class="f">-s</text><text x="55.11" y="1.67" class="f">/bin/zsh`.</text></symbol><symbol id="3"><text y="1.67" class="f">For</text><text x="4.008" y="1.67" class="f">more</text><text x="9.018" y="1.67" class="f">details,</text><text x="18.036" y="1.67" class="f">please</text><text x="25.05" y="1.67" class="f">visit</text><text x="31.062" y="1.67" class="f">https://support.apple.com/kb/HT208050.</text></symbol><symbol id="4"><text y="1.67" class="f">bash-3.2$</text></symbol><symbol id="5"><text y="1.67" class="f">bash-3.2$</text><text x="10.02" y="1.67" class="f">./near-cli</text></symbol><symbol id="6"><text y="1.67" class="g">?</text><text x="2.004" y="1.67" class="h">Choose</text><text x="9.018" y="1.67" class="h">your</text><text x="14.028" y="1.67" class="h">action</text><text x="21.042" y="1.67" class="i">›</text></symbol><symbol id="7"><text y="1.67" class="j">✔</text><text x="2.004" y="1.67" class="h">Choose</text><text x="9.018" y="1.67" class="h">your</text><text x="14.028" y="1.67" class="h">action</text><text x="21.042" y="1.67" class="i">·</text><text x="23.046" y="1.67" class="j">View</text><text x="28.056" y="1.67" class="j">account,</text><text x="37.074" y="1.67" class="j">contract</text><text x="46.092" y="1.67" class="j">code,</text><text x="52.104" y="1.67" class="j">contract</text><text x="61.122" y="1.67" class="j">state,</text><text x="68.136" y="1.67" class="j">transaction</text></symbol><symbol id="8"><text y="1.67" class="j">✔</text><text x="2.004" y="1.67" class="h">Сhoose</text><text x="9.018" y="1.67" class="h">what</text><text x="14.028" y="1.67" class="h">you</text><text x="18.036" y="1.67" class="h">want</text><text x="23.046" y="1.67" class="h">to</text><text x="26.052" y="1.67" class="h">view</text><text x="31.062" y="1.67" class="i">·</text><text x="33.066" y="1.67" class="j">View</text><text x="38.076" y="1.67" class="j">properties</text><text x="49.098" y="1.67" class="j">for</text><text x="53.106" y="1.67" class="j">an</text><text x="56.112" y="1.67" class="j">account</text></symbol><symbol id="9"><text y="1.67" class="j">✔</text><text x="2.004" y="1.67" class="h">Select</text><text x="9.018" y="1.67" class="h">NEAR</text><text x="14.028" y="1.67" class="h">protocol</text><text x="23.046" y="1.67" class="h">RPC</text><text x="27.054" y="1.67" class="h">server:</text><text x="35.07" y="1.67" class="i">·</text><text x="37.074" y="1.67" class="j">Testnet</text></symbol><symbol id="10"><text y="1.67" class="f">What</text><text x="5.01" y="1.67" class="f">Account</text><text x="13.026" y="1.67" class="f">ID</text><text x="16.032" y="1.67" class="f">do</text><text x="19.038" y="1.67" class="f">you</text><text x="23.046" y="1.67" class="f">need</text><text x="28.056" y="1.67" class="f">to</text><text x="31.062" y="1.67" class="f">view?:</text><text x="38.076" y="1.67" class="f">volodymyr.testnet</text></symbol><symbol id="11"><text y="1.67" class="j">❯</text><text x="2.004" y="1.67" class="k">View</text><text x="7.014" y="1.67" class="k">this</text><text x="12.024" y="1.67" class="k">account</text><text x="20.04" y="1.67" class="k">at</text><text x="23.046" y="1.67" class="k">final</text><text x="29.058" y="1.67" class="k">block</text></symbol><symbol id="12"><text x="2.004" y="1.67" class="f">View</text><text x="7.014" y="1.67" class="f">this</text><text x="12.024" y="1.67" class="f">account</text><text x="20.04" y="1.67" class="f">at</text><text x="23.046" y="1.67" class="f">block</text><text x="29.058" y="1.67" class="f">heigt</text></symbol><symbol id="13"><text x="2.004" y="1.67" class="f">View</text><text x="7.014" y="1.67" class="f">this</text><text x="12.024" y="1.67" class="f">account</text><text x="20.04" y="1.67" class="f">at</text><text x="23.046" y="1.67" class="f">block</text><text x="29.058" y="1.67" class="f">hash</text></symbol><symbol id="14"><text x="2.004" y="1.67" class="f">View</text><text x="7.014" y="1.67" class="f">this</text><text x="12.024" y="1.67" class="f">account</text><text x="20.04" y="1.67" class="f">at</text><text x="23.046" y="1.67" class="f">final</text><text x="29.058" y="1.67" class="f">block</text></symbol><symbol id="15"><text y="1.67" class="j">❯</text><text x="2.004" y="1.67" class="k">View</text><text x="7.014" y="1.67" class="k">this</text><text x="12.024" y="1.67" class="k">account</text><text x="20.04" y="1.67" class="k">at</text><text x="23.046" y="1.67" class="k">block</text><text x="29.058" y="1.67" class="k">heigt</text></symbol><symbol id="16"><text y="1.67" class="j">✔</text><text x="2.004" y="1.67" class="h">Choose</text><text x="9.018" y="1.67" class="h">your</text><text x="14.028" y="1.67" class="h">action</text><text x="21.042" y="1.67" class="i">·</text><text x="23.046" y="1.67" class="j">View</text><text x="28.056" y="1.67" class="j">this</text><text x="33.066" y="1.67" class="j">account</text><text x="41.082" y="1.67" class="j">at</text><text x="44.088" y="1.67" class="j">final</text><text x="50.1" y="1.67" class="j">block</text></symbol><symbol id="17"><text y="1.67" class="f">Account</text><text x="8.016" y="1.67" class="f">details</text><text x="16.032" y="1.67" class="f">for</text><text x="20.04" y="1.67" class="f">&apos;volodymyr.testnet&apos;</text><text x="40.08" y="1.67" class="f">at</text><text x="43.086" y="1.67" class="f">block</text><text x="49.098" y="1.67" class="f">#49788132</text><text x="59.118" y="1.67" class="f">(ApumAzJnz5bHnheUwtNNeiHW4nRJ8TZJgqQLBdns3c9d)</text></symbol><symbol id="18"><text y="1.67" class="f">Native</text><text x="7.014" y="1.67" class="f">account</text><text x="15.03" y="1.67" class="f">balance:</text><text x="24.048" y="1.67" class="f">256.718</text><text x="32.064" y="1.67" class="f">NEAR</text></symbol><symbol id="19"><text y="1.67" class="f">Validator</text><text x="10.02" y="1.67" class="f">stake:</text><text x="17.034" y="1.67" class="f">0</text><text x="19.038" y="1.67" class="f">NEAR</text></symbol><symbol id="20"><text y="1.67" class="f">Storage</text><text x="8.016" y="1.67" class="f">used</text><text x="13.026" y="1.67" class="f">by</text><text x="16.032" y="1.67" class="f">the</text><text x="20.04" y="1.67" class="f">account:</text><text x="29.058" y="1.67" class="f">115385</text><text x="36.072" y="1.67" class="f">bytes</text></symbol><symbol id="21"><text y="1.67" class="f">Contract</text><text x="9.018" y="1.67" class="f">code</text><text x="14.028" y="1.67" class="f">SHA-256</text><text x="22.044" y="1.67" class="f">checksum</text><text x="31.062" y="1.67" class="f">(hex):</text><text x="38.076" y="1.67" class="f">4de7df8ee6ff3780cfed298ceafde26e7477041ca8e2af7ae8c749de7068c0f2</text></symbol><symbol id="22"><text y="1.67" class="f">Number</text><text x="7.014" y="1.67" class="f">of</text><text x="10.02" y="1.67" class="f">access</text><text x="17.034" y="1.67" class="f">keys:</text><text x="23.046" y="1.67" class="f">7</text></symbol><symbol id="23"><text x="3.006" y="1.67" class="f">1.</text><text x="6.012" y="1.67" class="f">ed25519:2KZwhWEM5hbtP28kpx9TER3zyz9rL3Az1fcHsgr2Fzd1</text><text x="59.118" y="1.67" class="f">(nonce:</text><text x="67.134" y="1.67" class="f">9)</text><text x="70.14" y="1.67" class="f">is</text><text x="73.146" y="1.67" class="f">granted</text><text x="81.162" y="1.67" class="f">to</text><text x="84.168" y="1.67" class="f">full</text><text x="89.178" y="1.67" class="f">access</text></symbol><symbol id="24"><text x="3.006" y="1.67" class="f">2.</text><text x="6.012" y="1.67" class="f">ed25519:36u45LFDfgKQYr8ApgBi1kUHN5FpkTQRqvt66cwEdqiK</text><text x="59.118" y="1.67" class="f">(nonce:</text><text x="67.134" y="1.67" class="f">0)</text><text x="70.14" y="1.67" class="f">is</text><text x="73.146" y="1.67" class="f">granted</text><text x="81.162" y="1.67" class="f">to</text><text x="84.168" y="1.67" class="f">full</text><text x="89.178" y="1.67" class="f">access</text></symbol><symbol id="25"><text x="3.006" y="1.67" class="f">3.</text><text x="6.012" y="1.67" class="f">ed25519:7FmDRADa1v4BcLiiR9MPPdmWQp3Um1iPdAYATvBY1YzS</text><text x="59.118" y="1.67" class="f">(nonce:</text><text x="67.134" y="1.67" class="f">168)</text><text x="72.144" y="1.67" class="f">is</text><text x="75.15" y="1.67" class="f">granted</text><text x="83.166" y="1.67" class="f">to</text><text x="86.172" y="1.67" class="f">full</text><text x="91.182" y="1.67" class="f">access</text></symbol><symbol id="26"><text x="3.006" y="1.67" class="f">4.</text><text x="6.012" y="1.67" class="f">ed25519:8b6ghV9BLNNB7RwaxSxjbH636bfM9m6NL7bmLBSXPqK8</text><text x="59.118" y="1.67" class="f">(nonce:</text><text x="67.134" y="1.67" class="f">2)</text><text x="70.14" y="1.67" class="f">is</text><text x="73.146" y="1.67" class="f">granted</text><text x="81.162" y="1.67" class="f">to</text><text x="84.168" y="1.67" class="f">full</text><text x="89.178" y="1.67" class="f">access</text></symbol><symbol id="27"><text x="3.006" y="1.67" class="f">5.</text><text x="6.012" y="1.67" class="f">ed25519:937VyVwszEH13quNuPM4nNQTrDssNzRNnLMjPbN92tgu</text><text x="59.118" y="1.67" class="f">(nonce:</text><text x="67.134" y="1.67" class="f">3)</text><text x="70.14" y="1.67" class="f">is</text><text x="73.146" y="1.67" class="f">granted</text><text x="81.162" y="1.67" class="f">to</text><text x="84.168" y="1.67" class="f">full</text><text x="89.178" y="1.67" class="f">access</text></symbol><symbol id="28"><text x="3.006" y="1.67" class="f">6.</text><text x="6.012" y="1.67" class="f">ed25519:ApWodksvd7grTjFFimCroLxvrVDi7WD6g6gDE7RuhoGH</text><text x="59.118" y="1.67" class="f">(nonce:</text><text x="67.134" y="1.67" class="f">1)</text><text x="70.14" y="1.67" class="f">is</text><text x="73.146" y="1.67" class="f">granted</text><text x="81.162" y="1.67" class="f">to</text><text x="84.168" y="1.67" class="f">full</text><text x="89.178" y="1.67" class="f">access</text></symbol><symbol id="29"><text x="3.006" y="1.67" class="f">7.</text><text x="6.012" y="1.67" class="f">ed25519:JC5R9H6wjthHeumnUePRjvJNJrRm6ZTFUoi1NYuj9DBZ</text><text x="59.118" y="1.67" class="f">(nonce:</text><text x="67.134" y="1.67" class="f">0)</text><text x="70.14" y="1.67" class="f">is</text><text x="73.146" y="1.67" class="f">granted</text><text x="81.162" y="1.67" class="f">to</text><text x="84.168" y="1.67" class="f">full</text><text x="89.178" y="1.67" class="f">access</text></symbol><symbol id="a"><path fill="transparent" d="M0 0h214v39H0z"/></symbol><symbol id="b"><path fill="#6f7683" d="M0 0h1.102v2.171H0z"/></symbol></defs><path class="a" d="M0 0h214v84.669H0z"/><g style="animation-duration:23.229185s;animation-iteration-count:infinite;animation-name:n;animation-timing-function:steps(1,end)"><svg width="9844"><svg><use xlink:href="#a"/><use xlink:href="#b" x="-.004"/></svg><svg x="214"><use xlink:href="#a"/><use xlink:href="#b" x="-.004" y="8.659"/><use xlink:href="#1" y="2.171"/><use xlink:href="#2" y="4.342"/><use xlink:href="#3" y="6.513"/></svg><svg x="428"><use xlink:href="#a"/><use xlink:href="#b" x="9.996" y="8.659"/><use xlink:href="#1" y="2.171"/><use xlink:href="#2" y="4.342"/><use xlink:href="#3" y="6.513"/><use xlink:href="#4" y="8.684"/></svg><svg x="642"><use xlink:href="#a"/><use xlink:href="#b" x="10.996" y="8.659"/><use xlink:href="#1" y="2.171"/><use xlink:href="#2" y="4.342"/><use xlink:href="#3" y="6.513"/><text y="10.354" class="f">bash-3.2$</text><text x="10.02" y="10.354" class="f">.</text></svg><svg x="856"><use xlink:href="#a"/><use xlink:href="#b" x="11.996" y="8.659"/><use xlink:href="#1" y="2.171"/><use xlink:href="#2" y="4.342"/><use xlink:href="#3" y="6.513"/><text y="10.354" class="f">bash-3.2$</text><text x="10.02" y="10.354" class="f">./</text></svg><svg x="1070"><use xlink:href="#a"/><use xlink:href="#b" x="12.996" y="8.659"/><use xlink:href="#1" y="2.171"/><use xlink:href="#2" y="4.342"/><use xlink:href="#3" y="6.513"/><text y="10.354" class="f">bash-3.2$</text><text x="10.02" y="10.354" class="f">./n</text></svg><svg x="1284"><use xlink:href="#a"/><use xlink:href="#b" x="20.996" y="8.659"/><use xlink:href="#1" y="2.171"/><use xlink:href="#2" y="4.342"/><use xlink:href="#3" y="6.513"/><use xlink:href="#5" y="8.684"/></svg><svg x="1498"><use xlink:href="#a"/><use xlink:href="#b" x="-.004" y="10.83"/><use xlink:href="#1" y="2.171"/><use xlink:href="#2" y="4.342"/><use xlink:href="#3" y="6.513"/><use xlink:href="#5" y="8.684"/></svg><svg x="1712"><use xlink:href="#a"/><use xlink:href="#b" x="-.004" y="13.001"/><use xlink:href="#1" y="2.171"/><use xlink:href="#2" y="4.342"/><use xlink:href="#3" y="6.513"/><use xlink:href="#5" y="8.684"/></svg><svg x="1926"><use xlink:href="#a"/><use xlink:href="#1" y="2.171"/><use xlink:href="#2" y="4.342"/><use xlink:href="#3" y="6.513"/><use xlink:href="#5" y="8.684"/><use xlink:href="#6" y="13.026"/><text y="16.867" class="j">❯</text><text x="2.004" y="16.867" class="k">View</text><text x="7.014" y="16.867" class="k">account,</text><text x="16.032" y="16.867" class="k">contract</text><text x="25.05" y="16.867" class="k">code,</text><text x="31.062" y="16.867" class="k">contract</text><text x="40.08" y="16.867" class="k">state,</text><text x="47.094" y="16.867" class="k">transaction</text><text x="2.004" y="19.038" class="f">Transfer</text><text x="11.022" y="19.038" class="f">tokens</text><text x="2.004" y="21.209" class="f">Execute</text><text x="10.02" y="21.209" class="f">function</text><text x="19.038" y="21.209" class="f">(contract</text><text x="29.058" y="21.209" class="f">method)</text><text x="2.004" y="23.38" class="f">Add</text><text x="6.012" y="23.38" class="f">access</text><text x="13.026" y="23.38" class="f">key,</text><text x="18.036" y="23.38" class="f">contract</text><text x="27.054" y="23.38" class="f">code,</text><text x="33.066" y="23.38" class="f">stake</text><text x="39.078" y="23.38" class="f">proposal,</text><text x="49.098" y="23.38" class="f">sub-account,</text><text x="62.124" y="23.38" class="f">implicit-account</text><text x="2.004" y="25.551" class="f">Delete</text><text x="9.018" y="25.551" class="f">access</text><text x="16.032" y="25.551" class="f">key,</text><text x="21.042" y="25.551" class="f">account</text><text x="2.004" y="27.722" class="f">Construct</text><text x="12.024" y="27.722" class="f">a</text><text x="14.028" y="27.722" class="f">new</text><text x="18.036" y="27.722" class="f">transaction</text><text x="2.004" y="29.893" class="f">Helpers</text></svg><svg x="2140"><use xlink:href="#a"/><use xlink:href="#1" y="2.171"/><use xlink:href="#2" y="4.342"/><use xlink:href="#3" y="6.513"/><use xlink:href="#5" y="8.684"/></svg><svg x="2354"><use xlink:href="#a"/><use xlink:href="#1" y="2.171"/><use xlink:href="#2" y="4.342"/><use xlink:href="#3" y="6.513"/><use xlink:href="#5" y="8.684"/><use xlink:href="#7" y="13.026"/><text y="19.038" class="g">?</text><text x="2.004" y="19.038" class="h">Сhoose</text><text x="9.018" y="19.038" class="h">what</text><text x="14.028" y="19.038" class="h">you</text><text x="18.036" y="19.038" class="h">want</text><text x="23.046" y="19.038" class="h">to</text><text x="26.052" y="19.038" class="h">view</text><text x="31.062" y="19.038" class="i">›</text><text y="21.209" class="j">❯</text><text x="2.004" y="21.209" class="k">View</text><text x="7.014" y="21.209" class="k">properties</text><text x="18.036" y="21.209" class="k">for</text><text x="22.044" y="21.209" class="k">an</text><text x="25.05" y="21.209" class="k">account</text><text x="2.004" y="23.38" class="f">View</text><text x="7.014" y="23.38" class="f">a</text><text x="9.018" y="23.38" class="f">contract</text><text x="18.036" y="23.38" class="f">code</text><text x="2.004" y="25.551" class="f">View</text><text x="7.014" y="25.551" class="f">a</text><text x="9.018" y="25.551" class="f">contract</text><text x="18.036" y="25.551" class="f">state</text><text x="2.004" y="27.722" class="f">View</text><text x="7.014" y="27.722" class="f">a</text><text x="9.018" y="27.722" class="f">transaction</text><text x="21.042" y="27.722" class="f">status</text></svg><svg x="2568"><use xlink:href="#a"/><use xlink:href="#1" y="2.171"/><use xlink:href="#2" y="4.342"/><use xlink:href="#3" y="6.513"/><use xlink:href="#5" y="8.684"/><use xlink:href="#7" y="13.026"/></svg><svg x="2782"><use xlink:href="#a"/><use xlink:href="#1" y="2.171"/><use xlink:href="#2" y="4.342"/><use xlink:href="#3" y="6.513"/><use xlink:href="#5" y="8.684"/><use xlink:href="#7" y="13.026"/><use xlink:href="#8" y="17.368"/><text y="23.38" class="g">?</text><text x="2.004" y="23.38" class="h">Select</text><text x="9.018" y="23.38" class="h">NEAR</text><text x="14.028" y="23.38" class="h">protocol</text><text x="23.046" y="23.38" class="h">RPC</text><text x="27.054" y="23.38" class="h">server:</text><text x="35.07" y="23.38" class="i">›</text><text y="25.551" class="j">❯</text><text x="2.004" y="25.551" class="k">Testnet</text><text x="2.004" y="27.722" class="f">Mainnet</text><text x="2.004" y="29.893" class="f">Betanet</text><text x="2.004" y="32.064" class="f">Custom</text></svg><svg x="2996"><use xlink:href="#a"/><use xlink:href="#1" y="2.171"/><use xlink:href="#2" y="4.342"/><use xlink:href="#3" y="6.513"/><use xlink:href="#5" y="8.684"/><use xlink:href="#7" y="13.026"/><use xlink:href="#8" y="17.368"/></svg><svg x="3210"><use xlink:href="#a"/><use xlink:href="#b" x="-.004" y="23.856"/><use xlink:href="#1" y="2.171"/><use xlink:href="#2" y="4.342"/><use xlink:href="#3" y="6.513"/><use xlink:href="#5" y="8.684"/><use xlink:href="#7" y="13.026"/><use xlink:href="#8" y="17.368"/><use xlink:href="#9" y="21.71"/></svg><svg x="3424"><use xlink:href="#a"/><use xlink:href="#b" x="37.996" y="26.027"/><use xlink:href="#1" y="2.171"/><use xlink:href="#2" y="4.342"/><use xlink:href="#3" y="6.513"/><use xlink:href="#5" y="8.684"/><use xlink:href="#7" y="13.026"/><use xlink:href="#8" y="17.368"/><use xlink:href="#9" y="21.71"/><text y="27.722" class="f">What</text><text x="5.01" y="27.722" class="f">Account</text><text x="13.026" y="27.722" class="f">ID</text><text x="16.032" y="27.722" class="f">do</text><text x="19.038" y="27.722" class="f">you</text><text x="23.046" y="27.722" class="f">need</text><text x="28.056" y="27.722" class="f">to</text><text x="31.062" y="27.722" class="f">view?:</text></svg><svg x="3638"><use xlink:href="#a"/><use xlink:href="#b" x="38.996" y="26.027"/><use xlink:href="#1" y="2.171"/><use xlink:href="#2" y="4.342"/><use xlink:href="#3" y="6.513"/><use xlink:href="#5" y="8.684"/><use xlink:href="#7" y="13.026"/><use xlink:href="#8" y="17.368"/><use xlink:href="#9" y="21.71"/><text y="27.722" class="f">What</text><text x="5.01" y="27.722" class="f">Account</text><text x="13.026" y="27.722" class="f">ID</text><text x="16.032" y="27.722" class="f">do</text><text x="19.038" y="27.722" class="f">you</text><text x="23.046" y="27.722" class="f">need</text><text x="28.056" y="27.722" class="f">to</text><text x="31.062" y="27.722" class="f">view?:</text><text x="38.076" y="27.722" class="f">v</text></svg><svg x="3852"><use xlink:href="#a"/><use xlink:href="#b" x="39.996" y="26.027"/><use xlink:href="#1" y="2.171"/><use xlink:href="#2" y="4.342"/><use xlink:href="#3" y="6.513"/><use xlink:href="#5" y="8.684"/><use xlink:href="#7" y="13.026"/><use xlink:href="#8" y="17.368"/><use xlink:href="#9" y="21.71"/><text y="27.722" class="f">What</text><text x="5.01" y="27.722" class="f">Account</text><text x="13.026" y="27.722" class="f">ID</text><text x="16.032" y="27.722" class="f">do</text><text x="19.038" y="27.722" class="f">you</text><text x="23.046" y="27.722" class="f">need</text><text x="28.056" y="27.722" class="f">to</text><text x="31.062" y="27.722" class="f">view?:</text><text x="38.076" y="27.722" class="f">vo</text></svg><svg x="4066"><use xlink:href="#a"/><use xlink:href="#b" x="40.996" y="26.027"/><use xlink:href="#1" y="2.171"/><use xlink:href="#2" y="4.342"/><use xlink:href="#3" y="6.513"/><use xlink:href="#5" y="8.684"/><use xlink:href="#7" y="13.026"/><use xlink:href="#8" y="17.368"/><use xlink:href="#9" y="21.71"/><text y="27.722" class="f">What</text><text x="5.01" y="27.722" class="f">Account</text><text x="13.026" y="27.722" class="f">ID</text><text x="16.032" y="27.722" class="f">do</text><text x="19.038" y="27.722" class="f">you</text><text x="23.046" y="27.722" class="f">need</text><text x="28.056" y="27.722" class="f">to</text><text x="31.062" y="27.722" class="f">view?:</text><text x="38.076" y="27.722" class="f">vol</text></svg><svg x="4280"><use xlink:href="#a"/><use xlink:href="#b" x="41.996" y="26.027"/><use xlink:href="#1" y="2.171"/><use xlink:href="#2" y="4.342"/><use xlink:href="#3" y="6.513"/><use xlink:href="#5" y="8.684"/><use xlink:href="#7" y="13.026"/><use xlink:href="#8" y="17.368"/><use xlink:href="#9" y="21.71"/><text y="27.722" class="f">What</text><text x="5.01" y="27.722" class="f">Account</text><text x="13.026" y="27.722" class="f">ID</text><text x="16.032" y="27.722" class="f">do</text><text x="19.038" y="27.722" class="f">you</text><text x="23.046" y="27.722" class="f">need</text><text x="28.056" y="27.722" class="f">to</text><text x="31.062" y="27.722" class="f">view?:</text><text x="38.076" y="27.722" class="f">volo</text></svg><svg x="4494"><use xlink:href="#a"/><use xlink:href="#b" x="42.996" y="26.027"/><use xlink:href="#1" y="2.171"/><use xlink:href="#2" y="4.342"/><use xlink:href="#3" y="6.513"/><use xlink:href="#5" y="8.684"/><use xlink:href="#7" y="13.026"/><use xlink:href="#8" y="17.368"/><use xlink:href="#9" y="21.71"/><text y="27.722" class="f">What</text><text x="5.01" y="27.722" class="f">Account</text><text x="13.026" y="27.722" class="f">ID</text><text x="16.032" y="27.722" class="f">do</text><text x="19.038" y="27.722" class="f">you</text><text x="23.046" y="27.722" class="f">need</text><text x="28.056" y="27.722" class="f">to</text><text x="31.062" y="27.722" class="f">view?:</text><text x="38.076" y="27.722" class="f">volod</text></svg><svg x="4708"><use xlink:href="#a"/><use xlink:href="#b" x="43.996" y="26.027"/><use xlink:href="#1" y="2.171"/><use xlink:href="#2" y="4.342"/><use xlink:href="#3" y="6.513"/><use xlink:href="#5" y="8.684"/><use xlink:href="#7" y="13.026"/><use xlink:href="#8" y="17.368"/><use xlink:href="#9" y="21.71"/><text y="27.722" class="f">What</text><text x="5.01" y="27.722" class="f">Account</text><text x="13.026" y="27.722" class="f">ID</text><text x="16.032" y="27.722" class="f">do</text><text x="19.038" y="27.722" class="f">you</text><text x="23.046" y="27.722" class="f">need</text><text x="28.056" y="27.722" class="f">to</text><text x="31.062" y="27.722" class="f">view?:</text><text x="38.076" y="27.722" class="f">volody</text></svg><svg x="4922"><use xlink:href="#a"/><use xlink:href="#b" x="44.996" y="26.027"/><use xlink:href="#1" y="2.171"/><use xlink:href="#2" y="4.342"/><use xlink:href="#3" y="6.513"/><use xlink:href="#5" y="8.684"/><use xlink:href="#7" y="13.026"/><use xlink:href="#8" y="17.368"/><use xlink:href="#9" y="21.71"/><text y="27.722" class="f">What</text><text x="5.01" y="27.722" class="f">Account</text><text x="13.026" y="27.722" class="f">ID</text><text x="16.032" y="27.722" class="f">do</text><text x="19.038" y="27.722" class="f">you</text><text x="23.046" y="27.722" class="f">need</text><text x="28.056" y="27.722" class="f">to</text><text x="31.062" y="27.722" class="f">view?:</text><text x="38.076" y="27.722" class="f">volodym</text></svg><svg x="5136"><use xlink:href="#a"/><use xlink:href="#b" x="45.996" y="26.027"/><use xlink:href="#1" y="2.171"/><use xlink:href="#2" y="4.342"/><use xlink:href="#3" y="6.513"/><use xlink:href="#5" y="8.684"/><use xlink:href="#7" y="13.026"/><use xlink:href="#8" y="17.368"/><use xlink:href="#9" y="21.71"/><text y="27.722" class="f">What</text><text x="5.01" y="27.722" class="f">Account</text><text x="13.026" y="27.722" class="f">ID</text><text x="16.032" y="27.722" class="f">do</text><text x="19.038" y="27.722" class="f">you</text><text x="23.046" y="27.722" class="f">need</text><text x="28.056" y="27.722" class="f">to</text><text x="31.062" y="27.722" class="f">view?:</text><text x="38.076" y="27.722" class="f">volodymy</text></svg><svg x="5350"><use xlink:href="#a"/><use xlink:href="#b" x="46.996" y="26.027"/><use xlink:href="#1" y="2.171"/><use xlink:href="#2" y="4.342"/><use xlink:href="#3" y="6.513"/><use xlink:href="#5" y="8.684"/><use xlink:href="#7" y="13.026"/><use xlink:href="#8" y="17.368"/><use xlink:href="#9" y="21.71"/><text y="27.722" class="f">What</text><text x="5.01" y="27.722" class="f">Account</text><text x="13.026" y="27.722" class="f">ID</text><text x="16.032" y="27.722" class="f">do</text><text x="19.038" y="27.722" class="f">you</text><text x="23.046" y="27.722" class="f">need</text><text x="28.056" y="27.722" class="f">to</text><text x="31.062" y="27.722" class="f">view?:</text><text x="38.076" y="27.722" class="f">volodymyr</text></svg><svg x="5564"><use xlink:href="#a"/><use xlink:href="#b" x="47.996" y="26.027"/><use xlink:href="#1" y="2.171"/><use xlink:href="#2" y="4.342"/><use xlink:href="#3" y="6.513"/><use xlink:href="#5" y="8.684"/><use xlink:href="#7" y="13.026"/><use xlink:href="#8" y="17.368"/><use xlink:href="#9" y="21.71"/><text y="27.722" class="f">What</text><text x="5.01" y="27.722" class="f">Account</text><text x="13.026" y="27.722" class="f">ID</text><text x="16.032" y="27.722" class="f">do</text><text x="19.038" y="27.722" class="f">you</text><text x="23.046" y="27.722" class="f">need</text><text x="28.056" y="27.722" class="f">to</text><text x="31.062" y="27.722" class="f">view?:</text><text x="38.076" y="27.722" class="f">volodymyr.</text></svg><svg x="5778"><use xlink:href="#a"/><use xlink:href="#b" x="48.996" y="26.027"/><use xlink:href="#1" y="2.171"/><use xlink:href="#2" y="4.342"/><use xlink:href="#3" y="6.513"/><use xlink:href="#5" y="8.684"/><use xlink:href="#7" y="13.026"/><use xlink:href="#8" y="17.368"/><use xlink:href="#9" y="21.71"/><text y="27.722" class="f">What</text><text x="5.01" y="27.722" class="f">Account</text><text x="13.026" y="27.722" class="f">ID</text><text x="16.032" y="27.722" class="f">do</text><text x="19.038" y="27.722" class="f">you</text><text x="23.046" y="27.722" class="f">need</text><text x="28.056" y="27.722" class="f">to</text><text x="31.062" y="27.722" class="f">view?:</text><text x="38.076" y="27.722" class="f">volodymyr.t</text></svg><svg x="5992"><use xlink:href="#a"/><use xlink:href="#b" x="49.996" y="26.027"/><use xlink:href="#1" y="2.171"/><use xlink:href="#2" y="4.342"/><use xlink:href="#3" y="6.513"/><use xlink:href="#5" y="8.684"/><use xlink:href="#7" y="13.026"/><use xlink:href="#8" y="17.368"/><use xlink:href="#9" y="21.71"/><text y="27.722" class="f">What</text><text x="5.01" y="27.722" class="f">Account</text><text x="13.026" y="27.722" class="f">ID</text><text x="16.032" y="27.722" class="f">do</text><text x="19.038" y="27.722" class="f">you</text><text x="23.046" y="27.722" class="f">need</text><text x="28.056" y="27.722" class="f">to</text><text x="31.062" y="27.722" class="f">view?:</text><text x="38.076" y="27.722" class="f">volodymyr.te</text></svg><svg x="6206"><use xlink:href="#a"/><use xlink:href="#b" x="50.996" y="26.027"/><use xlink:href="#1" y="2.171"/><use xlink:href="#2" y="4.342"/><use xlink:href="#3" y="6.513"/><use xlink:href="#5" y="8.684"/><use xlink:href="#7" y="13.026"/><use xlink:href="#8" y="17.368"/><use xlink:href="#9" y="21.71"/><text y="27.722" class="f">What</text><text x="5.01" y="27.722" class="f">Account</text><text x="13.026" y="27.722" class="f">ID</text><text x="16.032" y="27.722" class="f">do</text><text x="19.038" y="27.722" class="f">you</text><text x="23.046" y="27.722" class="f">need</text><text x="28.056" y="27.722" class="f">to</text><text x="31.062" y="27.722" class="f">view?:</text><text x="38.076" y="27.722" class="f">volodymyr.tes</text></svg><svg x="6420"><use xlink:href="#a"/><use xlink:href="#b" x="51.996" y="26.027"/><use xlink:href="#1" y="2.171"/><use xlink:href="#2" y="4.342"/><use xlink:href="#3" y="6.513"/><use xlink:href="#5" y="8.684"/><use xlink:href="#7" y="13.026"/><use xlink:href="#8" y="17.368"/><use xlink:href="#9" y="21.71"/><text y="27.722" class="f">What</text><text x="5.01" y="27.722" class="f">Account</text><text x="13.026" y="27.722" class="f">ID</text><text x="16.032" y="27.722" class="f">do</text><text x="19.038" y="27.722" class="f">you</text><text x="23.046" y="27.722" class="f">need</text><text x="28.056" y="27.722" class="f">to</text><text x="31.062" y="27.722" class="f">view?:</text><text x="38.076" y="27.722" class="f">volodymyr.test</text></svg><svg x="6634"><use xlink:href="#a"/><use xlink:href="#b" x="52.996" y="26.027"/><use xlink:href="#1" y="2.171"/><use xlink:href="#2" y="4.342"/><use xlink:href="#3" y="6.513"/><use xlink:href="#5" y="8.684"/><use xlink:href="#7" y="13.026"/><use xlink:href="#8" y="17.368"/><use xlink:href="#9" y="21.71"/><text y="27.722" class="f">What</text><text x="5.01" y="27.722" class="f">Account</text><text x="13.026" y="27.722" class="f">ID</text><text x="16.032" y="27.722" class="f">do</text><text x="19.038" y="27.722" class="f">you</text><text x="23.046" y="27.722" class="f">need</text><text x="28.056" y="27.722" class="f">to</text><text x="31.062" y="27.722" class="f">view?:</text><text x="38.076" y="27.722" class="f">volodymyr.testn</text></svg><svg x="6848"><use xlink:href="#a"/><use xlink:href="#b" x="53.996" y="26.027"/><use xlink:href="#1" y="2.171"/><use xlink:href="#2" y="4.342"/><use xlink:href="#3" y="6.513"/><use xlink:href="#5" y="8.684"/><use xlink:href="#7" y="13.026"/><use xlink:href="#8" y="17.368"/><use xlink:href="#9" y="21.71"/><text y="27.722" class="f">What</text><text x="5.01" y="27.722" class="f">Account</text><text x="13.026" y="27.722" class="f">ID</text><text x="16.032" y="27.722" class="f">do</text><text x="19.038" y="27.722" class="f">you</text><text x="23.046" y="27.722" class="f">need</text><text x="28.056" y="27.722" class="f">to</text><text x="31.062" y="27.722" class="f">view?:</text><text x="38.076" y="27.722" class="f">volodymyr.testne</text></svg><svg x="7062"><use xlink:href="#a"/><use xlink:href="#b" x="54.996" y="26.027"/><use xlink:href="#1" y="2.171"/><use xlink:href="#2" y="4.342"/><use xlink:href="#3" y="6.513"/><use xlink:href="#5" y="8.684"/><use xlink:href="#7" y="13.026"/><use xlink:href="#8" y="17.368"/><use xlink:href="#9" y="21.71"/><use xlink:href="#10" y="26.052"/></svg><svg x="7276"><use xlink:href="#a"/><use xlink:href="#b" x="-.004" y="28.198"/><use xlink:href="#1" y="2.171"/><use xlink:href="#2" y="4.342"/><use xlink:href="#3" y="6.513"/><use xlink:href="#5" y="8.684"/><use xlink:href="#7" y="13.026"/><use xlink:href="#8" y="17.368"/><use xlink:href="#9" y="21.71"/><use xlink:href="#10" y="26.052"/></svg><svg x="7490"><use xlink:href="#a"/><use xlink:href="#b" x="-.004" y="30.369"/><use xlink:href="#1" y="2.171"/><use xlink:href="#2" y="4.342"/><use xlink:href="#3" y="6.513"/><use xlink:href="#5" y="8.684"/><use xlink:href="#7" y="13.026"/><use xlink:href="#8" y="17.368"/><use xlink:href="#9" y="21.71"/><use xlink:href="#10" y="26.052"/></svg><svg x="7704"><use xlink:href="#a"/><use xlink:href="#1" y="2.171"/><use xlink:href="#2" y="4.342"/><use xlink:href="#3" y="6.513"/><use xlink:href="#5" y="8.684"/><use xlink:href="#7" y="13.026"/><use xlink:href="#8" y="17.368"/><use xlink:href="#9" y="21.71"/><use xlink:href="#10" y="26.052"/><use xlink:href="#6" y="30.394"/><use xlink:href="#11" y="32.565"/><use xlink:href="#12" y="34.736"/><use xlink:href="#13" y="36.907"/></svg><svg x="7918"><use xlink:href="#a"/><use xlink:href="#1" y="2.171"/><use xlink:href="#2" y="4.342"/><use xlink:href="#3" y="6.513"/><use xlink:href="#5" y="8.684"/><use xlink:href="#7" y="13.026"/><use xlink:href="#8" y="17.368"/><use xlink:href="#9" y="21.71"/><use xlink:href="#10" y="26.052"/><use xlink:href="#6" y="30.394"/><use xlink:href="#14" y="32.565"/><use xlink:href="#15" y="34.736"/><use xlink:href="#13" y="36.907"/></svg><svg x="8132"><use xlink:href="#a"/><use xlink:href="#1" y="2.171"/><use xlink:href="#2" y="4.342"/><use xlink:href="#3" y="6.513"/><use xlink:href="#5" y="8.684"/><use xlink:href="#7" y="13.026"/><use xlink:href="#8" y="17.368"/><use xlink:href="#9" y="21.71"/><use xlink:href="#10" y="26.052"/><use xlink:href="#6" y="30.394"/><use xlink:href="#14" y="32.565"/><use xlink:href="#15" y="34.736"/><use xlink:href="#13" y="36.907"/></svg><svg x="8346"><use xlink:href="#a"/><use xlink:href="#1" y="2.171"/><use xlink:href="#2" y="4.342"/><use xlink:href="#3" y="6.513"/><use xlink:href="#5" y="8.684"/><use xlink:href="#7" y="13.026"/><use xlink:href="#8" y="17.368"/><use xlink:href="#9" y="21.71"/><use xlink:href="#10" y="26.052"/><use xlink:href="#6" y="30.394"/><use xlink:href="#11" y="32.565"/><use xlink:href="#12" y="34.736"/><use xlink:href="#13" y="36.907"/></svg><svg x="8560"><use xlink:href="#a"/><use xlink:href="#b" x="-.004" y="32.54"/><use xlink:href="#1" y="2.171"/><use xlink:href="#2" y="4.342"/><use xlink:href="#3" y="6.513"/><use xlink:href="#5" y="8.684"/><use xlink:href="#7" y="13.026"/><use xlink:href="#8" y="17.368"/><use xlink:href="#9" y="21.71"/><use xlink:href="#10" y="26.052"/><use xlink:href="#16" y="30.394"/></svg><svg x="8774"><use xlink:href="#a"/><use xlink:href="#b" x="-.004" y="34.711"/><use xlink:href="#1" y="2.171"/><use xlink:href="#2" y="4.342"/><use xlink:href="#3" y="6.513"/><use xlink:href="#5" y="8.684"/><use xlink:href="#7" y="13.026"/><use xlink:href="#8" y="17.368"/><use xlink:href="#9" y="21.71"/><use xlink:href="#10" y="26.052"/><use xlink:href="#16" y="30.394"/></svg><svg x="8988"><use xlink:href="#a"/><use xlink:href="#b" x="-.004" y="45.566"/><use xlink:href="#1" y="2.171"/><use xlink:href="#2" y="4.342"/><use xlink:href="#3" y="6.513"/><use xlink:href="#5" y="8.684"/><use xlink:href="#7" y="13.026"/><use xlink:href="#8" y="17.368"/><use xlink:href="#9" y="21.71"/><use xlink:href="#10" y="26.052"/><use xlink:href="#16" y="30.394"/><use xlink:href="#17" y="34.736"/><use xlink:href="#18" y="36.907"/><use xlink:href="#19" y="39.078"/><use xlink:href="#20" y="41.249"/><use xlink:href="#21" y="43.42"/></svg><svg x="9202"><use xlink:href="#a"/><use xlink:href="#b" x="-.004" y="62.934"/><use xlink:href="#1" y="2.171"/><use xlink:href="#2" y="4.342"/><use xlink:href="#3" y="6.513"/><use xlink:href="#5" y="8.684"/><use xlink:href="#7" y="13.026"/><use xlink:href="#8" y="17.368"/><use xlink:href="#9" y="21.71"/><use xlink:href="#10" y="26.052"/><use xlink:href="#16" y="30.394"/><use xlink:href="#17" y="34.736"/><use xlink:href="#18" y="36.907"/><use xlink:href="#19" y="39.078"/><use xlink:href="#20" y="41.249"/><use xlink:href="#21" y="43.42"/><use xlink:href="#22" y="45.591"/><use xlink:href="#23" y="47.762"/><use xlink:href="#24" y="49.933"/><use xlink:href="#25" y="52.104"/><use xlink:href="#26" y="54.275"/><use xlink:href="#27" y="56.446"/><use xlink:href="#28" y="58.617"/><use xlink:href="#29" y="60.788"/></svg><svg x="9416"><use xlink:href="#a"/><use xlink:href="#b" x="9.996" y="62.934"/><use xlink:href="#1" y="2.171"/><use xlink:href="#2" y="4.342"/><use xlink:href="#3" y="6.513"/><use xlink:href="#5" y="8.684"/><use xlink:href="#7" y="13.026"/><use xlink:href="#8" y="17.368"/><use xlink:href="#9" y="21.71"/><use xlink:href="#10" y="26.052"/><use xlink:href="#16" y="30.394"/><use xlink:href="#17" y="34.736"/><use xlink:href="#18" y="36.907"/><use xlink:href="#19" y="39.078"/><use xlink:href="#20" y="41.249"/><use xlink:href="#21" y="43.42"/><use xlink:href="#22" y="45.591"/><use xlink:href="#23" y="47.762"/><use xlink:href="#24" y="49.933"/><use xlink:href="#25" y="52.104"/><use xlink:href="#26" y="54.275"/><use xlink:href="#27" y="56.446"/><use xlink:href="#28" y="58.617"/><use xlink:href="#29" y="60.788"/><use xlink:href="#4" y="62.959"/></svg><svg x="9630"><use xlink:href="#a"/><use xlink:href="#b" x="-.004" y="65.105"/><use xlink:href="#1" y="2.171"/><use xlink:href="#2" y="4.342"/><use xlink:href="#3" y="6.513"/><use xlink:href="#5" y="8.684"/><use xlink:href="#7" y="13.026"/><use xlink:href="#8" y="17.368"/><use xlink:href="#9" y="21.71"/><use xlink:href="#10" y="26.052"/><use xlink:href="#16" y="30.394"/><use xlink:href="#17" y="34.736"/><use xlink:href="#18" y="36.907"/><use xlink:href="#19" y="39.078"/><use xlink:href="#20" y="41.249"/><use xlink:href="#21" y="43.42"/><use xlink:href="#22" y="45.591"/><use xlink:href="#23" y="47.762"/><use xlink:href="#24" y="49.933"/><use xlink:href="#25" y="52.104"/><use xlink:href="#26" y="54.275"/><use xlink:href="#27" y="56.446"/><use xlink:href="#28" y="58.617"/><use xlink:href="#29" y="60.788"/><text y="64.629" class="f">bash-3.2$</text><text x="10.02" y="64.629" class="f">exit</text></svg></svg></g></g></svg></svg>
